{"title":"Man of Steel 2013 TS LINE XviD Feel-Free","uid":8693403,"size":1413280107,"categoryP":"video","categoryS":"movies","magnet":"?xt=urn:btih:36284094f72f514f7320b83667748725a3fe5f45&amp;dn=Man+of+Steel+2013+TS+LINE+XviD+Feel-Free&amp;tr=udp%3A%2F%2Ftracker.openbittorrent.com%3A80&amp;tr=udp%3A%2F%2Fopen.demonii.com%3A1337&amp;tr=udp%3A%2F%2Ftracker.coppersurfer.tk%3A6969&amp;tr=udp%3A%2F%2Fexodus.desync.com%3A6969","seeders":4,"leechers":0,"uploader":".BONE.","files":7,"time":1373920800,"description":"Genre:Action | Adventure | Fantasy\nLanguage:English\nIMDb:http://www.imdb.com/title/tt0770828/\nSource:720 JYK Thanks\nSample:Never\nEncoder:Tony\n\nFormat                                   : AVI\nFormat/Info                              : Audio Video Interleave\nFile size                                : 1.32 GiB\nDuration                                 : 2h 22mn\nOverall bit rate                         : 1 320 Kbps\n\nVideo\nID                                       : 0\nFormat                                   : MPEG-4 Visual\nFormat profile                           : Simple@L5\nFormat settings, BVOP                    : No\nFormat settings, QPel                    : No\nFormat settings, GMC                     : No warppoints\nFormat settings, Matrix                  : Default (H.263)\nCodec ID                                 : XVID\nCodec ID/Hint                            : XviD\nDuration                                 : 2h 22mn\nBit rate                                 : 1 189 Kbps\nWidth                                    : 640 pixels\nHeight                                   : 272 pixels\nDisplay aspect ratio                     : 2.35:1\nFrame rate                               : 29.970 fps\nColor space                              : YUV\nChroma subsampling                       : 4:2:0\nBit depth                                : 8 bits\nScan type                                : Progressive\nCompression mode                         : Lossy\nBits/(Pixel*Frame)                       : 0.228\nStream size                              : 1.19 GiB (90%)\nWriting library                          : XviD 64\n\nAudio\nID                                       : 1\nFormat                                   : AC-3\nFormat/Info                              : Audio Coding 3\nMode extension                           : CM (complete main)\nCodec ID                                 : 2000\nDuration                                 : 2h 13mn\nBit rate mode                            : Constant\nBit rate                                 : 128 Kbps\nChannel(s)                               : 2 channels\nChannel positions                        : Front: L R\nSampling rate                            : 48.0 KHz\nBit depth                                : 16 bits\nCompression mode                         : Lossy\nStream size                              : 122 MiB (9%)\nAlignment                                : Aligned on interleaves\nInterleave, duration                     : 36 ms (1.07 video frame)\nInterleave, preload duration             : 512 ms","torrent":{"xt":"urn:btih:36284094f72f514f7320b83667748725a3fe5f45","amp;dn":"Man+of+Steel+2013+TS+LINE+XviD+Feel-Free","amp;tr":["udp%3A%2F%2Ftracker.openbittorrent.com%3A80","udp%3A%2F%2Fopen.demonii.com%3A1337","udp%3A%2F%2Ftracker.coppersurfer.tk%3A6969","udp%3A%2F%2Fexodus.desync.com%3A6969"],"infoHash":"36284094f72f514f7320b83667748725a3fe5f45","infoHashBuffer":{"type":"Buffer","data":[54,40,64,148,247,47,81,79,115,32,184,54,103,116,135,37,163,254,95,69]},"announce":[],"urlList":[]}}